<?xml version="1.0" standalone="no"?>
<!DOCTYPE svg PUBLIC "-//W3C//DTD SVG 20010904//EN"
 "http://www.w3.org/TR/2001/REC-SVG-20010904/DTD/svg10.dtd">
<svg version="1.0" xmlns="http://www.w3.org/2000/svg"
 width="2000.000000pt" height="1000.000000pt" viewBox="0 0 2000.000000 1000.000000"
 preserveAspectRatio="xMidYMid meet">

<g transform="translate(0.000000,1000.000000) scale(0.100000,-0.100000)"
fill="#000000" stroke="none">
<path d="M6267 5850 c-22 -77 -44 -143 -50 -148 -7 -5 -58 -25 -114 -43 -57
-18 -99 -36 -95 -40 4 -3 50 -21 102 -39 52 -18 100 -38 107 -44 6 -6 29 -67
51 -136 22 -69 43 -118 45 -110 3 8 22 68 43 132 l37 117 97 35 c53 20 102 36
108 36 35 0 0 19 -97 53 l-109 38 -37 132 c-20 73 -40 137 -44 144 -3 6 -23
-51 -44 -127z"/>
<path d="M9545 5921 c-134 -32 -178 -183 -80 -270 83 -73 211 -57 265 32 28
46 27 124 -3 167 -38 57 -114 87 -182 71z"/>
<path d="M13085 5864 c-275 -39 -461 -185 -506 -395 -19 -87 -6 -200 30 -274
69 -141 196 -215 500 -295 107 -28 222 -64 255 -79 156 -72 189 -209 76 -322
-68 -68 -152 -93 -294 -87 -95 3 -110 6 -172 38 -78 40 -119 90 -139 167 l-12
48 -147 3 -146 3 0 -44 c0 -103 65 -242 149 -319 69 -63 190 -122 293 -143
101 -20 305 -20 406 0 265 54 432 237 432 475 0 175 -88 311 -258 398 -88 45
-158 69 -330 112 -209 52 -275 85 -319 158 -47 76 -19 185 62 243 84 60 250
75 369 33 67 -23 131 -88 149 -151 l14 -48 148 -3 147 -3 -7 53 c-28 202 -176
356 -400 413 -60 16 -244 27 -300 19z"/>
<path d="M8030 5005 l0 -835 150 0 150 0 0 285 0 285 213 0 c244 0 314 11 423
65 95 47 174 126 218 219 43 90 56 153 56 269 -1 224 -91 387 -266 479 -121
64 -153 68 -571 68 l-373 0 0 -835z m700 569 c78 -23 131 -63 165 -126 28 -49
30 -60 30 -158 0 -98 -2 -109 -30 -159 -63 -115 -135 -141 -387 -141 l-178 0
0 300 0 300 173 0 c130 0 187 -4 227 -16z"/>
<path d="M11320 5005 l0 -835 150 0 150 0 0 213 0 213 54 53 54 54 46 -64 c25
-35 110 -154 189 -264 l143 -200 177 -3 c97 -1 177 0 177 3 0 2 -113 160 -250
351 -138 190 -252 350 -253 354 -1 4 104 126 233 270 129 144 237 266 238 271
2 5 -73 9 -167 9 l-170 0 -226 -252 c-125 -139 -231 -254 -236 -256 -5 -2 -9
177 -9 457 l0 461 -150 0 -150 0 0 -835z"/>
<path d="M15270 5005 l0 -835 150 0 150 0 0 835 0 835 -150 0 -150 0 0 -835z"/>
<path d="M4259 5709 c-8 -16 -8 -28 0 -45 l11 -24 260 0 260 0 11 24 c8 17 8
29 0 45 -11 21 -17 21 -271 21 -254 0 -260 0 -271 -21z"/>
<path d="M5296 5708 c-13 -19 -14 -25 -2 -43 13 -19 24 -20 266 -23 266 -2
280 0 280 42 0 44 -11 46 -276 46 -249 0 -253 0 -268 -22z"/>
<path d="M4454 5466 c-63 -28 -64 -34 -64 -317 l0 -257 26 -31 c47 -57 137
-50 175 13 17 28 19 54 19 274 0 272 -4 292 -65 318 -42 17 -51 17 -91 0z"/>
<path d="M5533 5430 c-50 -30 -55 -64 -51 -332 l3 -237 29 -30 c15 -16 39 -32
53 -36 35 -8 89 12 113 42 19 24 20 40 20 279 0 161 -4 262 -11 277 -24 54
-100 72 -156 37z"/>
<path d="M10515 5427 c-99 -33 -168 -84 -210 -156 -16 -28 -33 -51 -37 -51 -5
0 -8 47 -8 105 l0 105 -140 0 -140 0 0 -630 0 -630 144 0 145 0 3 408 c3 405
3 407 27 460 44 97 130 152 237 152 102 0 173 -41 217 -124 22 -40 22 -51 25
-468 l3 -428 149 0 150 0 0 433 c0 467 -5 521 -55 622 -40 82 -88 131 -171
172 -72 35 -81 37 -187 40 -74 2 -126 -2 -152 -10z"/>
<path d="M14353 5425 c-140 -31 -270 -125 -325 -236 -47 -95 -52 -91 102 -112
130 -19 135 -19 145 -1 5 10 27 37 48 60 90 101 300 105 375 9 12 -15 26 -50
33 -80 10 -47 10 -57 -5 -80 -26 -40 -65 -51 -251 -74 -190 -23 -266 -41 -338
-77 -115 -59 -176 -151 -185 -279 -12 -193 79 -329 261 -387 93 -30 269 -22
349 14 60 28 153 107 163 139 14 43 25 14 25 -66 l0 -85 140 0 141 0 -3 483
-3 482 -32 67 c-53 113 -143 181 -289 218 -92 24 -255 26 -351 5z m387 -743
c0 -114 -22 -177 -80 -233 -56 -55 -128 -83 -215 -83 -79 1 -124 17 -165 59
-29 30 -34 43 -38 92 -3 48 0 64 20 92 33 50 101 81 215 98 54 8 130 23 168
33 39 9 76 18 83 19 9 1 12 -21 12 -77z"/>
<path d="M16196 5424 c-219 -53 -379 -234 -421 -478 -44 -256 16 -490 162
-635 115 -113 243 -161 434 -161 265 0 454 110 529 308 14 38 16 52 7 52 -6 0
-68 7 -137 15 -116 14 -126 14 -135 -2 -5 -9 -27 -36 -48 -59 -56 -62 -127
-87 -232 -82 -165 9 -267 103 -293 271 -5 31 -7 59 -4 62 3 3 201 5 440 5
l435 0 -6 118 c-6 122 -31 242 -65 309 -54 105 -155 203 -252 245 -111 48
-291 62 -414 32z m246 -224 c99 -28 182 -125 195 -229 l6 -51 -292 0 -291 0 0
23 c0 87 99 218 190 250 52 18 139 21 192 7z"/>
<path d="M9440 4800 l0 -630 145 0 145 0 0 630 0 630 -145 0 -145 0 0 -630z"/>
<path d="M3875 5168 c-32 -11 -92 -52 -113 -78 -7 -8 -24 -37 -37 -65 -51
-104 -23 -231 68 -311 70 -62 164 -80 261 -52 60 18 148 109 165 170 17 59 10
151 -13 199 -22 47 -78 103 -125 125 -43 21 -162 28 -206 12z"/>
<path d="M6020 5160 c-56 -26 -105 -72 -133 -125 -31 -57 -31 -183 0 -241 52
-97 149 -150 261 -142 77 6 117 23 168 75 53 53 74 105 74 188 0 83 -21 135
-74 188 -54 54 -91 70 -176 74 -61 3 -84 0 -120 -17z"/>
<path d="M4503 4438 c-30 -15 -46 -58 -34 -90 12 -33 51 -60 155 -108 127 -60
236 -83 391 -83 187 -1 341 34 517 115 99 46 121 74 96 125 -21 44 -58 51
-121 24 -107 -48 -243 -92 -331 -107 -208 -37 -433 7 -591 115 -33 23 -49 25
-82 9z"/>
</g>
</svg>
